<?xml version="1.0" standalone="no"?>
<!DOCTYPE svg PUBLIC "-//W3C//DTD SVG 20010904//EN"
 "http://www.w3.org/TR/2001/REC-SVG-20010904/DTD/svg10.dtd">
<svg version="1.0" xmlns="http://www.w3.org/2000/svg"
 width="440.000000pt" height="415.000000pt" viewBox="0 0 440.000000 415.000000"
 preserveAspectRatio="xMidYMid meet">

<g transform="translate(0.000000,415.000000) scale(0.100000,-0.100000)"
fill="#000000" stroke="none">
<path d="M0 2080 l0 -2070 2200 0 c1460 0 2200 3 2200 10 0 6 -9 10 -20 10
-20 0 -20 7 -20 2050 0 2043 0 2050 20 2050 11 0 20 5 20 10 0 7 -740 10
-2200 10 l-2200 0 0 -2070z m996 1416 c176 -56 262 -158 311 -370 10 -41 16
-150 20 -338 l5 -278 -188 0 -189 0 0 273 c0 239 -2 278 -18 319 -33 86 -105
125 -213 115 -109 -10 -163 -55 -185 -154 -19 -84 -19 -1792 0 -1876 24 -110
82 -151 211 -152 70 0 92 4 125 23 60 34 86 79 96 164 10 86 12 372 3 417 l-6
31 -99 0 -99 0 0 165 0 165 284 0 284 0 7 -105 c4 -58 3 -244 -3 -413 -11
-330 -23 -406 -77 -517 -77 -158 -222 -231 -485 -242 -103 -4 -143 -1 -229 16
-177 37 -256 92 -321 224 -70 144 -72 165 -77 977 -5 744 4 1103 31 1216 43
176 135 285 280 333 98 33 162 40 311 36 116 -3 154 -8 221 -29z m2839 9 c182
-48 275 -142 328 -330 18 -61 21 -109 25 -364 2 -161 0 -296 -5 -300 -4 -3
-85 -5 -180 -3 l-171 3 -4 287 c-3 275 -4 289 -26 329 -28 53 -84 84 -167 90
-114 10 -189 -29 -222 -115 -16 -41 -18 -79 -18 -307 0 -240 2 -265 22 -330
35 -111 51 -121 285 -181 92 -23 197 -57 232 -74 220 -109 297 -364 267 -880
-15 -258 -50 -375 -142 -470 -94 -97 -213 -133 -444 -134 -170 0 -262 16 -357
65 -93 47 -162 146 -200 287 -18 66 -22 114 -26 326 -2 136 -1 272 3 302 l6
54 174 0 174 0 0 -257 c0 -244 8 -339 31 -382 31 -60 130 -98 226 -88 76 8
129 41 156 96 21 43 23 62 26 272 2 136 -1 256 -7 300 -14 93 -52 172 -94 198
-18 11 -96 36 -175 55 -290 73 -390 132 -459 271 -61 121 -76 252 -70 592 4
243 7 288 26 357 56 207 158 299 380 341 97 19 321 13 406 -10z m-1507 -20
c279 -58 379 -192 403 -544 16 -214 6 -689 -16 -796 -29 -143 -101 -260 -197
-322 -21 -13 -38 -24 -38 -26 0 -1 67 -236 149 -522 l148 -520 -195 -3 c-108
-1 -199 1 -202 5 -4 5 -63 227 -131 495 l-124 488 -77 0 -78 0 0 -495 0 -495
-190 0 -190 0 0 1375 0 1375 334 0 c254 0 351 -3 404 -15z"/>
<path d="M1970 2620 l0 -553 119 5 c148 6 202 28 240 97 22 40 25 61 33 243 5
118 5 285 0 407 -8 192 -11 211 -33 252 -16 29 -40 52 -69 69 -40 22 -59 25
-167 28 l-123 4 0 -552z"/>
</g>
</svg>
