<?xml version="1.0" encoding="UTF-8"?>
<!DOCTYPE svg PUBLIC "-//W3C//DTD SVG 1.1//EN" "http://www.w3.org/Graphics/SVG/1.1/DTD/svg11.dtd">
<svg xmlns="http://www.w3.org/2000/svg" version="1.1" width="1080px" height="1080px" style="shape-rendering:geometricPrecision; text-rendering:geometricPrecision; image-rendering:optimizeQuality; fill-rule:evenodd; clip-rule:evenodd" xmlns:xlink="http://www.w3.org/1999/xlink">
<g><path style="opacity:1" fill="#000000" d="M -0.5,-0.5 C 359.5,-0.5 719.5,-0.5 1079.5,-0.5C 1079.5,359.5 1079.5,719.5 1079.5,1079.5C 719.5,1079.5 359.5,1079.5 -0.5,1079.5C -0.5,719.5 -0.5,359.5 -0.5,-0.5 Z"/></g>
<g><path style="opacity:1" fill="#fdfdfd" d="M 278.5,512.5 C 264.677,511.504 250.677,511.171 236.5,511.5C 236.5,489.167 236.5,466.833 236.5,444.5C 275.833,444.5 315.167,444.5 354.5,444.5C 355.763,493.489 355.596,542.489 354,591.5C 353.121,618.237 346.788,643.57 335,667.5C 321.229,688.153 302.062,700.986 277.5,706C 248.215,711.418 218.881,711.751 189.5,707C 147.677,700.177 122.51,676.01 114,634.5C 111.165,620.99 109.499,607.324 109,593.5C 107.031,476.165 107.031,358.832 109,241.5C 109.777,220.833 113.777,200.833 121,181.5C 134.246,152.435 156.746,135.268 188.5,130C 220.378,124.663 252.044,125.663 283.5,133C 314,142.167 333.833,162 343,192.5C 348.983,212.38 351.983,232.714 352,253.5C 352.745,282.177 352.579,310.844 351.5,339.5C 325.833,339.5 300.167,339.5 274.5,339.5C 275.429,306.504 275.596,273.504 275,240.5C 276.245,225.239 272.078,211.739 262.5,200C 252.633,193.102 241.633,189.936 229.5,190.5C 203.479,190.69 188.979,203.69 186,229.5C 182.356,358.18 182.689,486.847 187,615.5C 192.777,636.742 206.777,647.075 229,646.5C 262.674,648.159 279.34,632.159 279,598.5C 279.792,569.814 279.625,541.148 278.5,512.5 Z"/></g>
<g><path style="opacity:1" fill="#fdfdfd" d="M 947.5,338.5 C 922.833,338.5 898.167,338.5 873.5,338.5C 873.5,329.167 873.5,319.833 873.5,310.5C 873.667,286.164 873.5,261.831 873,237.5C 873.969,205.723 858.636,190.056 827,190.5C 812.015,189.266 799.682,194.266 790,205.5C 787.163,210.172 785.163,215.172 784,220.5C 779.694,258.474 779.694,296.474 784,334.5C 785.187,345.261 788.52,355.261 794,364.5C 799.753,370.628 806.587,375.128 814.5,378C 834.875,382.844 855.209,387.844 875.5,393C 911.1,402.933 933.6,425.766 943,461.5C 946.361,473.64 948.695,485.973 950,498.5C 951.926,535.509 951.593,572.509 949,609.5C 947.001,633.854 939.334,656.187 926,676.5C 913.193,690.989 897.36,700.489 878.5,705C 845.882,711.845 813.216,712.178 780.5,706C 751.209,699.695 730.709,682.862 719,655.5C 711.284,635.25 707.284,614.25 707,592.5C 706.041,560.127 706.541,527.793 708.5,495.5C 732.759,494.51 757.092,494.177 781.5,494.5C 780.596,525.162 780.429,555.829 781,586.5C 781.162,597.579 782.162,608.579 784,619.5C 788.701,635.199 799.201,644.033 815.5,646C 827.722,647.325 839.722,646.325 851.5,643C 864.198,636.465 871.031,625.965 872,611.5C 875.28,576.837 875.28,542.171 872,507.5C 870.912,494.805 866.912,483.138 860,472.5C 855.329,467.498 849.829,463.665 843.5,461C 819.035,454.8 794.701,448.134 770.5,441C 737.067,428.554 716.9,404.721 710,369.5C 707.842,358.24 706.176,346.907 705,335.5C 704.101,299.816 704.434,264.149 706,228.5C 707.343,204.1 714.677,181.766 728,161.5C 740.315,146.247 756.148,136.413 775.5,132C 808.083,125.057 840.749,124.723 873.5,131C 907.134,138.637 929.301,158.804 940,191.5C 944.612,207.171 947.279,223.171 948,239.5C 948.342,272.501 948.175,305.501 947.5,338.5 Z"/></g>
<g><path style="opacity:1" fill="#fefefe" d="M 652.5,702.5 C 625.854,704.491 598.854,705.158 571.5,704.5C 554.004,636.518 536.504,568.518 519,500.5C 508.088,498.536 496.922,497.869 485.5,498.5C 485.5,567.5 485.5,636.5 485.5,705.5C 459.5,705.5 433.5,705.5 407.5,705.5C 407.5,514.5 407.5,323.5 407.5,132.5C 450.501,132.333 493.501,132.5 536.5,133C 563.233,133.427 587.567,141.093 609.5,156C 628.162,173.826 638.996,195.659 642,221.5C 643.408,235.137 644.408,248.803 645,262.5C 645.667,297.167 645.667,331.833 645,366.5C 645.615,389.36 642.615,411.693 636,433.5C 628.196,457.133 613.362,474.799 591.5,486.5C 612.463,558.358 632.797,630.358 652.5,702.5 Z"/></g>
<g><path style="opacity:1" fill="#000000" d="M 485.5,200.5 C 499.837,200.333 514.171,200.5 528.5,201C 548.776,202.947 561.276,213.781 566,233.5C 568.965,285.477 569.299,337.477 567,389.5C 565.975,409.773 555.808,422.607 536.5,428C 519.538,429.393 502.538,429.893 485.5,429.5C 485.5,353.167 485.5,276.833 485.5,200.5 Z"/></g>
<g><path style="opacity:1" fill="#7d7d7d" d="M 873.5,310.5 C 873.5,319.833 873.5,329.167 873.5,338.5C 898.167,338.5 922.833,338.5 947.5,338.5C 922.672,339.498 897.672,339.831 872.5,339.5C 872.173,329.652 872.506,319.986 873.5,310.5 Z"/></g>
<g><path style="opacity:1" fill="#cdcdcd" d="M 236.5,444.5 C 236.5,466.833 236.5,489.167 236.5,511.5C 250.677,511.171 264.677,511.504 278.5,512.5C 264.167,512.5 249.833,512.5 235.5,512.5C 235.169,489.661 235.503,466.994 236.5,444.5 Z"/></g>
<g><path style="opacity:1" fill="#bfbfbf" d="M 781.5,494.5 C 757.092,494.177 732.759,494.51 708.5,495.5C 720.314,494.168 732.481,493.501 745,493.5C 757.338,493.5 769.505,493.833 781.5,494.5 Z"/></g>
<g><path style="opacity:1" fill="#818181" d="M 652.5,702.5 C 653.404,703.209 653.737,704.209 653.5,705.5C 625.995,705.831 598.662,705.498 571.5,704.5C 598.854,705.158 625.854,704.491 652.5,702.5 Z"/></g>
<g><path style="opacity:1" fill="#fefefe" d="M 833.5,807.5 C 833.5,815.833 833.5,824.167 833.5,832.5C 823.319,832.173 813.319,832.506 803.5,833.5C 803.5,896.167 803.5,958.833 803.5,1021.5C 793.833,1021.5 784.167,1021.5 774.5,1021.5C 774.5,958.833 774.5,896.167 774.5,833.5C 764.167,833.5 753.833,833.5 743.5,833.5C 743.5,824.833 743.5,816.167 743.5,807.5C 773.5,807.5 803.5,807.5 833.5,807.5 Z"/></g>
<g><path style="opacity:1" fill="#fcfcfc" d="M 852.5,807.5 C 871.86,807.157 891.194,807.657 910.5,809C 928.599,813.433 938.433,824.933 940,843.5C 940.667,855.833 940.667,868.167 940,880.5C 939.72,894.767 933.22,904.767 920.5,910.5C 919.231,912.695 919.231,914.861 920.5,917C 932.185,921.372 938.685,929.872 940,942.5C 940.837,957.863 940.504,973.197 939,988.5C 936.736,1005.76 927.236,1016.26 910.5,1020C 891.213,1021.44 871.88,1021.94 852.5,1021.5C 852.5,950.167 852.5,878.833 852.5,807.5 Z"/></g>
<g><path style="opacity:1" fill="#fbfbfb" d="M 1006.5,929.5 C 1006.5,928.167 1006.5,926.833 1006.5,925.5C 1004.59,925.216 1002.92,925.549 1001.5,926.5C 999.667,940.822 997.834,955.156 996,969.5C 991.199,986.701 987.033,1004.03 983.5,1021.5C 973.81,1021.83 964.144,1021.5 954.5,1020.5C 964.793,983.939 974.46,947.273 983.5,910.5C 974.712,876.183 965.379,842.016 955.5,808C 965.161,807.5 974.828,807.334 984.5,807.5C 988.009,823.536 991.842,839.536 996,855.5C 997.804,870.187 999.638,884.853 1001.5,899.5C 1002.83,899.5 1004.17,899.5 1005.5,899.5C 1007.44,885.514 1009.28,871.514 1011,857.5C 1015.15,840.897 1018.98,824.23 1022.5,807.5C 1032.17,807.5 1041.83,807.5 1051.5,807.5C 1042.19,842.057 1033.19,876.723 1024.5,911.5C 1033.83,948.163 1043.17,984.83 1052.5,1021.5C 1042.83,1021.5 1033.17,1021.5 1023.5,1021.5C 1019.97,1003.38 1015.8,985.378 1011,967.5C 1009.17,954.869 1007.67,942.202 1006.5,929.5 Z"/></g>
<g><path style="opacity:1" fill="#bfbfbf" d="M 833.5,807.5 C 834.493,815.984 834.826,824.651 834.5,833.5C 824.167,833.5 813.833,833.5 803.5,833.5C 813.319,832.506 823.319,832.173 833.5,832.5C 833.5,824.167 833.5,815.833 833.5,807.5 Z"/></g>
<g><path style="opacity:1" fill="#090909" d="M 881.5,833.5 C 887.842,833.334 894.175,833.5 900.5,834C 906.167,835.822 909.667,839.656 911,845.5C 911.667,857.5 911.667,869.5 911,881.5C 910.908,890.541 906.741,896.708 898.5,900C 892.843,900.499 887.176,900.666 881.5,900.5C 881.5,878.167 881.5,855.833 881.5,833.5 Z"/></g>
<g><path style="opacity:1" fill="#030303" d="M 882.5,926.5 C 889.241,926.171 895.908,926.671 902.5,928C 906.128,930.638 908.628,934.138 910,938.5C 911.58,953.12 911.913,967.787 911,982.5C 909.249,989.752 904.749,994.085 897.5,995.5C 892.5,995.5 887.5,995.5 882.5,995.5C 882.5,972.5 882.5,949.5 882.5,926.5 Z"/></g>
<g><path style="opacity:1" fill="#656565" d="M 1001.5,926.5 C 1002.92,925.549 1004.59,925.216 1006.5,925.5C 1006.5,926.833 1006.5,928.167 1006.5,929.5C 1005.6,928.791 1005.26,927.791 1005.5,926.5C 1004.17,926.5 1002.83,926.5 1001.5,926.5 Z"/></g>
<g><path style="opacity:1" fill="#757575" d="M 882.5,926.5 C 882.5,949.5 882.5,972.5 882.5,995.5C 887.5,995.5 892.5,995.5 897.5,995.5C 892.36,996.488 887.026,996.821 881.5,996.5C 881.169,972.994 881.502,949.661 882.5,926.5 Z"/></g>
</svg>
