<?xml version="1.0" encoding="UTF-8"?>
<!DOCTYPE svg PUBLIC "-//W3C//DTD SVG 1.1//EN" "http://www.w3.org/Graphics/SVG/1.1/DTD/svg11.dtd">
<svg xmlns="http://www.w3.org/2000/svg" version="1.1" width="1080px" height="1080px" style="shape-rendering:geometricPrecision; text-rendering:geometricPrecision; image-rendering:optimizeQuality; fill-rule:evenodd; clip-rule:evenodd" xmlns:xlink="http://www.w3.org/1999/xlink">
<g><path style="opacity:1" fill="#000000" d="M -0.5,-0.5 C 359.5,-0.5 719.5,-0.5 1079.5,-0.5C 1079.5,359.5 1079.5,719.5 1079.5,1079.5C 719.5,1079.5 359.5,1079.5 -0.5,1079.5C -0.5,719.5 -0.5,359.5 -0.5,-0.5 Z"/></g>
<g><path style="opacity:1" fill="#fdfdfd" d="M 278.5,512.5 C 264.677,511.504 250.677,511.171 236.5,511.5C 236.5,489.167 236.5,466.833 236.5,444.5C 275.833,444.5 315.167,444.5 354.5,444.5C 355.763,493.489 355.596,542.489 354,591.5C 353.121,618.237 346.788,643.57 335,667.5C 321.229,688.153 302.062,700.986 277.5,706C 248.215,711.418 218.881,711.751 189.5,707C 147.677,700.177 122.51,676.01 114,634.5C 111.165,620.99 109.499,607.324 109,593.5C 107.031,476.165 107.031,358.832 109,241.5C 109.777,220.833 113.777,200.833 121,181.5C 134.246,152.435 156.746,135.268 188.5,130C 220.378,124.663 252.044,125.663 283.5,133C 314,142.167 333.833,162 343,192.5C 348.983,212.38 351.983,232.714 352,253.5C 352.745,282.177 352.579,310.844 351.5,339.5C 325.833,339.5 300.167,339.5 274.5,339.5C 275.429,306.504 275.596,273.504 275,240.5C 276.245,225.239 272.078,211.739 262.5,200C 252.633,193.102 241.633,189.936 229.5,190.5C 203.479,190.69 188.979,203.69 186,229.5C 182.356,358.18 182.689,486.847 187,615.5C 192.777,636.742 206.777,647.075 229,646.5C 262.674,648.159 279.34,632.159 279,598.5C 279.792,569.814 279.625,541.148 278.5,512.5 Z"/></g>
<g><path style="opacity:1" fill="#fdfdfd" d="M 947.5,338.5 C 922.833,338.5 898.167,338.5 873.5,338.5C 873.5,329.167 873.5,319.833 873.5,310.5C 873.667,286.164 873.5,261.831 873,237.5C 873.969,205.723 858.636,190.056 827,190.5C 812.015,189.266 799.682,194.266 790,205.5C 787.163,210.172 785.163,215.172 784,220.5C 779.694,258.474 779.694,296.474 784,334.5C 785.187,345.261 788.52,355.261 794,364.5C 799.753,370.628 806.587,375.128 814.5,378C 834.875,382.844 855.209,387.844 875.5,393C 911.1,402.933 933.6,425.766 943,461.5C 946.361,473.64 948.695,485.973 950,498.5C 951.926,535.509 951.593,572.509 949,609.5C 947.001,633.854 939.334,656.187 926,676.5C 913.193,690.989 897.36,700.489 878.5,705C 845.882,711.845 813.216,712.178 780.5,706C 751.209,699.695 730.709,682.862 719,655.5C 711.284,635.25 707.284,614.25 707,592.5C 706.041,560.127 706.541,527.793 708.5,495.5C 732.759,494.51 757.092,494.177 781.5,494.5C 780.596,525.162 780.429,555.829 781,586.5C 781.162,597.579 782.162,608.579 784,619.5C 788.701,635.199 799.201,644.033 815.5,646C 827.722,647.325 839.722,646.325 851.5,643C 864.198,636.465 871.031,625.965 872,611.5C 875.28,576.837 875.28,542.171 872,507.5C 870.912,494.805 866.912,483.138 860,472.5C 855.329,467.498 849.829,463.665 843.5,461C 819.035,454.8 794.701,448.134 770.5,441C 737.067,428.554 716.9,404.721 710,369.5C 707.842,358.24 706.176,346.907 705,335.5C 704.101,299.816 704.434,264.149 706,228.5C 707.343,204.1 714.677,181.766 728,161.5C 740.315,146.247 756.148,136.413 775.5,132C 808.083,125.057 840.749,124.723 873.5,131C 907.134,138.637 929.301,158.804 940,191.5C 944.612,207.171 947.279,223.171 948,239.5C 948.342,272.501 948.175,305.501 947.5,338.5 Z"/></g>
<g><path style="opacity:1" fill="#fefefe" d="M 652.5,702.5 C 625.854,704.491 598.854,705.158 571.5,704.5C 554.004,636.518 536.504,568.518 519,500.5C 508.088,498.536 496.922,497.869 485.5,498.5C 485.5,567.5 485.5,636.5 485.5,705.5C 459.5,705.5 433.5,705.5 407.5,705.5C 407.5,514.5 407.5,323.5 407.5,132.5C 450.501,132.333 493.501,132.5 536.5,133C 563.233,133.427 587.567,141.093 609.5,156C 628.162,173.826 638.996,195.659 642,221.5C 643.408,235.137 644.408,248.803 645,262.5C 645.667,297.167 645.667,331.833 645,366.5C 645.615,389.36 642.615,411.693 636,433.5C 628.196,457.133 613.362,474.799 591.5,486.5C 612.463,558.358 632.797,630.358 652.5,702.5 Z"/></g>
<g><path style="opacity:1" fill="#000000" d="M 485.5,200.5 C 499.837,200.333 514.171,200.5 528.5,201C 548.776,202.947 561.276,213.781 566,233.5C 568.965,285.477 569.299,337.477 567,389.5C 565.975,409.773 555.808,422.607 536.5,428C 519.538,429.393 502.538,429.893 485.5,429.5C 485.5,353.167 485.5,276.833 485.5,200.5 Z"/></g>
<g><path style="opacity:1" fill="#7d7d7d" d="M 873.5,310.5 C 873.5,319.833 873.5,329.167 873.5,338.5C 898.167,338.5 922.833,338.5 947.5,338.5C 922.672,339.498 897.672,339.831 872.5,339.5C 872.173,329.652 872.506,319.986 873.5,310.5 Z"/></g>
<g><path style="opacity:1" fill="#cdcdcd" d="M 236.5,444.5 C 236.5,466.833 236.5,489.167 236.5,511.5C 250.677,511.171 264.677,511.504 278.5,512.5C 264.167,512.5 249.833,512.5 235.5,512.5C 235.169,489.661 235.503,466.994 236.5,444.5 Z"/></g>
<g><path style="opacity:1" fill="#bfbfbf" d="M 781.5,494.5 C 757.092,494.177 732.759,494.51 708.5,495.5C 720.314,494.168 732.481,493.501 745,493.5C 757.338,493.5 769.505,493.833 781.5,494.5 Z"/></g>
<g><path style="opacity:1" fill="#818181" d="M 652.5,702.5 C 653.404,703.209 653.737,704.209 653.5,705.5C 625.995,705.831 598.662,705.498 571.5,704.5C 598.854,705.158 625.854,704.491 652.5,702.5 Z"/></g>
<g><path style="opacity:1" fill="#fbfbfb" d="M 467.5,807.5 C 485.836,807.333 504.17,807.5 522.5,808C 543.273,809.787 555.106,820.954 558,841.5C 559.938,888.497 559.938,935.497 558,982.5C 557.637,1005.43 546.137,1018.26 523.5,1021C 504.836,1021.5 486.17,1021.67 467.5,1021.5C 467.5,950.167 467.5,878.833 467.5,807.5 Z"/></g>
<g><path style="opacity:1" fill="#fcfcfc" d="M 584.5,807.5 C 601.837,807.333 619.17,807.5 636.5,808C 651.838,808.572 662.671,815.739 669,829.5C 671.377,836.299 672.711,843.299 673,850.5C 673.895,870.197 673.561,889.864 672,909.5C 671.08,922.384 665.247,932.217 654.5,939C 653.941,939.725 653.608,940.558 653.5,941.5C 661.246,967.736 668.58,994.069 675.5,1020.5C 665.681,1021.49 655.681,1021.83 645.5,1021.5C 638.786,996.347 632.286,971.014 626,945.5C 621.934,944.536 617.767,944.203 613.5,944.5C 613.5,970.167 613.5,995.833 613.5,1021.5C 603.833,1021.5 594.167,1021.5 584.5,1021.5C 584.5,950.167 584.5,878.833 584.5,807.5 Z"/></g>
<g><path style="opacity:1" fill="#f8f8f8" d="M 694.5,807.5 C 704.5,807.5 714.5,807.5 724.5,807.5C 724.5,878.833 724.5,950.167 724.5,1021.5C 714.5,1021.5 704.5,1021.5 694.5,1021.5C 694.5,950.167 694.5,878.833 694.5,807.5 Z"/></g>
<g><path style="opacity:1" fill="#fcfcfc" d="M 791.5,995.5 C 793.265,996.461 795.265,996.795 797.5,996.5C 797.5,994.167 797.5,991.833 797.5,989.5C 798.668,964.815 800.168,940.149 802,915.5C 806.251,879.823 810.585,844.156 815,808.5C 825.084,807.514 835.251,807.181 845.5,807.5C 836.5,878.833 827.5,950.167 818.5,1021.5C 802.167,1021.5 785.833,1021.5 769.5,1021.5C 761.237,950.399 752.237,879.399 742.5,808.5C 747.5,808.167 752.5,807.833 757.5,807.5C 762.915,807.529 768.082,808.195 773,809.5C 777.503,848.189 782.169,886.855 787,925.5C 788.299,949.002 789.799,972.335 791.5,995.5 Z"/></g>
<g><path style="opacity:1" fill="#fcfcfc" d="M 864.5,807.5 C 889.833,807.5 915.167,807.5 940.5,807.5C 940.5,816.167 940.5,824.833 940.5,833.5C 924.833,833.5 909.167,833.5 893.5,833.5C 893.5,855.833 893.5,878.167 893.5,900.5C 908.167,900.5 922.833,900.5 937.5,900.5C 937.5,908.833 937.5,917.167 937.5,925.5C 922.657,925.171 907.99,925.504 893.5,926.5C 893.5,949.5 893.5,972.5 893.5,995.5C 909.167,995.5 924.833,995.5 940.5,995.5C 940.5,1004.17 940.5,1012.83 940.5,1021.5C 915.167,1021.5 889.833,1021.5 864.5,1021.5C 864.5,950.167 864.5,878.833 864.5,807.5 Z"/></g>
<g><path style="opacity:1" fill="#fdfdfd" d="M 1051.5,1019.5 C 1041.89,1021.47 1031.89,1022.14 1021.5,1021.5C 1014.94,996.534 1008.44,971.534 1002,946.5C 998.164,944.611 993.997,943.945 989.5,944.5C 989.5,970.167 989.5,995.833 989.5,1021.5C 979.833,1021.5 970.167,1021.5 960.5,1021.5C 960.5,950.167 960.5,878.833 960.5,807.5C 980.2,807.105 999.867,807.605 1019.5,809C 1032.63,811.462 1041.46,818.962 1046,831.5C 1047.64,836.714 1048.64,842.047 1049,847.5C 1049.91,868.2 1049.58,888.867 1048,909.5C 1047,916.157 1045,922.49 1042,928.5C 1038.43,933.4 1034.27,937.567 1029.5,941C 1037.07,967.103 1044.4,993.27 1051.5,1019.5 Z"/></g>
<g><path style="opacity:1" fill="#6c6c6c" d="M 497.5,833.5 C 497.5,887.5 497.5,941.5 497.5,995.5C 503.833,995.5 510.167,995.5 516.5,995.5C 510.021,996.491 503.354,996.824 496.5,996.5C 496.168,941.997 496.501,887.664 497.5,833.5 Z"/></g>
<g><path style="opacity:1" fill="#000000" d="M 497.5,833.5 C 505.571,833.137 513.571,833.637 521.5,835C 525.058,836.892 527.558,839.725 529,843.5C 529.667,890.5 529.667,937.5 529,984.5C 527.171,990.829 523.004,994.496 516.5,995.5C 510.167,995.5 503.833,995.5 497.5,995.5C 497.5,941.5 497.5,887.5 497.5,833.5 Z"/></g>
<g><path style="opacity:1" fill="#020202" d="M 613.5,833.5 C 619.509,833.334 625.509,833.501 631.5,834C 639.194,835.699 643.36,840.533 644,848.5C 644.767,867.853 644.434,887.186 643,906.5C 641.947,912.553 638.447,916.387 632.5,918C 626.175,918.5 619.842,918.666 613.5,918.5C 613.5,890.167 613.5,861.833 613.5,833.5 Z"/></g>
<g><path style="opacity:1" fill="#020202" d="M 989.5,833.5 C 995.842,833.334 1002.18,833.5 1008.5,834C 1015.19,836.026 1019.02,840.526 1020,847.5C 1020.67,866.167 1020.67,884.833 1020,903.5C 1019.47,911.022 1015.64,915.856 1008.5,918C 1002.18,918.5 995.842,918.666 989.5,918.5C 989.5,890.167 989.5,861.833 989.5,833.5 Z"/></g>
<g><path style="opacity:1" fill="#a7a7a7" d="M 937.5,900.5 C 938.493,908.984 938.826,917.651 938.5,926.5C 923.5,926.5 908.5,926.5 893.5,926.5C 907.99,925.504 922.657,925.171 937.5,925.5C 937.5,917.167 937.5,908.833 937.5,900.5 Z"/></g>
<g><path style="opacity:1" fill="#717171" d="M 797.5,989.5 C 797.5,991.833 797.5,994.167 797.5,996.5C 795.265,996.795 793.265,996.461 791.5,995.5C 793.167,995.5 794.833,995.5 796.5,995.5C 796.205,993.265 796.539,991.265 797.5,989.5 Z"/></g>
<g><path style="opacity:1" fill="#616161" d="M 584.5,807.5 C 584.5,878.833 584.5,950.167 584.5,1021.5C 594.167,1021.5 603.833,1021.5 613.5,1021.5C 603.681,1022.49 593.681,1022.83 583.5,1022.5C 583.167,950.665 583.501,878.998 584.5,807.5 Z"/></g>
<g><path style="opacity:1" fill="#3f3f3f" d="M 675.5,1020.5 C 676.043,1020.56 676.376,1020.89 676.5,1021.5C 666.007,1022.82 655.674,1022.82 645.5,1021.5C 655.681,1021.83 665.681,1021.49 675.5,1020.5 Z"/></g>
<g><path style="opacity:1" fill="#606060" d="M 864.5,807.5 C 864.5,878.833 864.5,950.167 864.5,1021.5C 889.833,1021.5 915.167,1021.5 940.5,1021.5C 915.005,1022.5 889.339,1022.83 863.5,1022.5C 863.167,950.665 863.501,878.998 864.5,807.5 Z"/></g>
<g><path style="opacity:1" fill="#424242" d="M 1051.5,1019.5 C 1052.4,1020.21 1052.74,1021.21 1052.5,1022.5C 1041.99,1022.83 1031.65,1022.49 1021.5,1021.5C 1031.89,1022.14 1041.89,1021.47 1051.5,1019.5 Z"/></g>
</svg>
