<?xml version="1.0" encoding="UTF-8"?>
<!DOCTYPE svg PUBLIC "-//W3C//DTD SVG 1.1//EN" "http://www.w3.org/Graphics/SVG/1.1/DTD/svg11.dtd">
<svg xmlns="http://www.w3.org/2000/svg" version="1.1" width="1080px" height="1080px" style="shape-rendering:geometricPrecision; text-rendering:geometricPrecision; image-rendering:optimizeQuality; fill-rule:evenodd; clip-rule:evenodd" xmlns:xlink="http://www.w3.org/1999/xlink">
<g><path style="opacity:1" fill="#000000" d="M -0.5,-0.5 C 359.5,-0.5 719.5,-0.5 1079.5,-0.5C 1079.5,359.5 1079.5,719.5 1079.5,1079.5C 719.5,1079.5 359.5,1079.5 -0.5,1079.5C -0.5,719.5 -0.5,359.5 -0.5,-0.5 Z"/></g>
<g><path style="opacity:1" fill="#fdfdfd" d="M 278.5,512.5 C 264.677,511.504 250.677,511.171 236.5,511.5C 236.5,489.167 236.5,466.833 236.5,444.5C 275.833,444.5 315.167,444.5 354.5,444.5C 355.763,493.489 355.596,542.489 354,591.5C 353.121,618.237 346.788,643.57 335,667.5C 321.229,688.153 302.062,700.986 277.5,706C 248.215,711.418 218.881,711.751 189.5,707C 147.677,700.177 122.51,676.01 114,634.5C 111.165,620.99 109.499,607.324 109,593.5C 107.031,476.165 107.031,358.832 109,241.5C 109.777,220.833 113.777,200.833 121,181.5C 134.246,152.435 156.746,135.268 188.5,130C 220.378,124.663 252.044,125.663 283.5,133C 314,142.167 333.833,162 343,192.5C 348.983,212.38 351.983,232.714 352,253.5C 352.745,282.177 352.579,310.844 351.5,339.5C 325.833,339.5 300.167,339.5 274.5,339.5C 275.429,306.504 275.596,273.504 275,240.5C 276.245,225.239 272.078,211.739 262.5,200C 252.633,193.102 241.633,189.936 229.5,190.5C 203.479,190.69 188.979,203.69 186,229.5C 182.356,358.18 182.689,486.847 187,615.5C 192.777,636.742 206.777,647.075 229,646.5C 262.674,648.159 279.34,632.159 279,598.5C 279.792,569.814 279.625,541.148 278.5,512.5 Z"/></g>
<g><path style="opacity:1" fill="#fdfdfd" d="M 947.5,338.5 C 922.833,338.5 898.167,338.5 873.5,338.5C 873.5,329.167 873.5,319.833 873.5,310.5C 873.667,286.164 873.5,261.831 873,237.5C 873.969,205.723 858.636,190.056 827,190.5C 812.015,189.266 799.682,194.266 790,205.5C 787.163,210.172 785.163,215.172 784,220.5C 779.694,258.474 779.694,296.474 784,334.5C 785.187,345.261 788.52,355.261 794,364.5C 799.753,370.628 806.587,375.128 814.5,378C 834.875,382.844 855.209,387.844 875.5,393C 911.1,402.933 933.6,425.766 943,461.5C 946.361,473.64 948.695,485.973 950,498.5C 951.926,535.509 951.593,572.509 949,609.5C 947.001,633.854 939.334,656.187 926,676.5C 913.193,690.989 897.36,700.489 878.5,705C 845.882,711.845 813.216,712.178 780.5,706C 751.209,699.695 730.709,682.862 719,655.5C 711.284,635.25 707.284,614.25 707,592.5C 706.041,560.127 706.541,527.793 708.5,495.5C 732.759,494.51 757.092,494.177 781.5,494.5C 780.596,525.162 780.429,555.829 781,586.5C 781.162,597.579 782.162,608.579 784,619.5C 788.701,635.199 799.201,644.033 815.5,646C 827.722,647.325 839.722,646.325 851.5,643C 864.198,636.465 871.031,625.965 872,611.5C 875.28,576.837 875.28,542.171 872,507.5C 870.912,494.805 866.912,483.138 860,472.5C 855.329,467.498 849.829,463.665 843.5,461C 819.035,454.8 794.701,448.134 770.5,441C 737.067,428.554 716.9,404.721 710,369.5C 707.842,358.24 706.176,346.907 705,335.5C 704.101,299.816 704.434,264.149 706,228.5C 707.343,204.1 714.677,181.766 728,161.5C 740.315,146.247 756.148,136.413 775.5,132C 808.083,125.057 840.749,124.723 873.5,131C 907.134,138.637 929.301,158.804 940,191.5C 944.612,207.171 947.279,223.171 948,239.5C 948.342,272.501 948.175,305.501 947.5,338.5 Z"/></g>
<g><path style="opacity:1" fill="#fefefe" d="M 652.5,702.5 C 625.854,704.491 598.854,705.158 571.5,704.5C 554.004,636.518 536.504,568.518 519,500.5C 508.088,498.536 496.922,497.869 485.5,498.5C 485.5,567.5 485.5,636.5 485.5,705.5C 459.5,705.5 433.5,705.5 407.5,705.5C 407.5,514.5 407.5,323.5 407.5,132.5C 450.501,132.333 493.501,132.5 536.5,133C 563.233,133.427 587.567,141.093 609.5,156C 628.162,173.826 638.996,195.659 642,221.5C 643.408,235.137 644.408,248.803 645,262.5C 645.667,297.167 645.667,331.833 645,366.5C 645.615,389.36 642.615,411.693 636,433.5C 628.196,457.133 613.362,474.799 591.5,486.5C 612.463,558.358 632.797,630.358 652.5,702.5 Z"/></g>
<g><path style="opacity:1" fill="#000000" d="M 485.5,200.5 C 499.837,200.333 514.171,200.5 528.5,201C 548.776,202.947 561.276,213.781 566,233.5C 568.965,285.477 569.299,337.477 567,389.5C 565.975,409.773 555.808,422.607 536.5,428C 519.538,429.393 502.538,429.893 485.5,429.5C 485.5,353.167 485.5,276.833 485.5,200.5 Z"/></g>
<g><path style="opacity:1" fill="#7d7d7d" d="M 873.5,310.5 C 873.5,319.833 873.5,329.167 873.5,338.5C 898.167,338.5 922.833,338.5 947.5,338.5C 922.672,339.498 897.672,339.831 872.5,339.5C 872.173,329.652 872.506,319.986 873.5,310.5 Z"/></g>
<g><path style="opacity:1" fill="#cdcdcd" d="M 236.5,444.5 C 236.5,466.833 236.5,489.167 236.5,511.5C 250.677,511.171 264.677,511.504 278.5,512.5C 264.167,512.5 249.833,512.5 235.5,512.5C 235.169,489.661 235.503,466.994 236.5,444.5 Z"/></g>
<g><path style="opacity:1" fill="#bfbfbf" d="M 781.5,494.5 C 757.092,494.177 732.759,494.51 708.5,495.5C 720.314,494.168 732.481,493.501 745,493.5C 757.338,493.5 769.505,493.833 781.5,494.5 Z"/></g>
<g><path style="opacity:1" fill="#818181" d="M 652.5,702.5 C 653.404,703.209 653.737,704.209 653.5,705.5C 625.995,705.831 598.662,705.498 571.5,704.5C 598.854,705.158 625.854,704.491 652.5,702.5 Z"/></g>
<g><path style="opacity:1" fill="#fcfcfc" d="M 538.5,995.5 C 558.326,996.497 578.326,996.83 598.5,996.5C 598.5,1004.83 598.5,1013.17 598.5,1021.5C 568.833,1021.5 539.167,1021.5 509.5,1021.5C 509.333,1003.16 509.5,984.83 510,966.5C 512.38,951.24 518.88,938.073 529.5,927C 540.736,918.465 552.236,910.298 564,902.5C 567.673,898.153 570.006,893.153 571,887.5C 572.522,872.533 572.855,857.533 572,842.5C 571.052,835.096 566.885,830.929 559.5,830C 552.436,828.255 546.269,829.755 541,834.5C 539.293,836.909 538.46,839.575 538.5,842.5C 537.504,856.323 537.171,870.323 537.5,884.5C 528.167,884.5 518.833,884.5 509.5,884.5C 508.02,868.811 508.187,853.144 510,837.5C 513.171,819.663 523.671,809.163 541.5,806C 553.267,805.065 564.934,805.732 576.5,808C 588.571,812.407 596.071,820.907 599,833.5C 602.293,853.829 602.293,874.162 599,894.5C 596.207,905.589 590.707,915.089 582.5,923C 573.044,930.451 563.044,937.118 552.5,943C 544.732,950.033 540.232,958.867 539,969.5C 538.5,978.16 538.334,986.827 538.5,995.5 Z"/></g>
<g><path style="opacity:1" fill="#fbfbfb" d="M 825.5,884.5 C 816.167,884.5 806.833,884.5 797.5,884.5C 797.5,881.833 797.5,879.167 797.5,876.5C 797.667,865.495 797.5,854.495 797,843.5C 794.742,831.605 787.575,827.105 775.5,830C 770.319,830.831 766.819,833.664 765,838.5C 763.352,887.455 763.019,936.455 764,985.5C 764.352,992.056 767.519,996.556 773.5,999C 780.054,1000.08 786.388,999.414 792.5,997C 795.106,995.062 796.939,992.562 798,989.5C 798.5,976.171 798.667,962.837 798.5,949.5C 793.167,949.5 787.833,949.5 782.5,949.5C 782.5,941.167 782.5,932.833 782.5,924.5C 797.5,924.5 812.5,924.5 827.5,924.5C 827.667,943.17 827.5,961.836 827,980.5C 826.159,991.209 823.159,1001.21 818,1010.5C 811.246,1018.09 802.746,1022.26 792.5,1023C 783.5,1023.67 774.5,1023.67 765.5,1023C 750.221,1020.39 740.721,1011.55 737,996.5C 736.333,991.167 735.667,985.833 735,980.5C 734.333,935.5 734.333,890.5 735,845.5C 735.434,831.13 741.267,819.63 752.5,811C 757.519,808.327 762.852,806.66 768.5,806C 777.874,805.224 787.207,805.558 796.5,807C 813.27,810.776 822.77,821.276 825,838.5C 826.678,853.975 826.844,869.308 825.5,884.5 Z"/></g>
<g><path style="opacity:1" fill="#fefffe" d="M 442.5,995.5 C 457.991,996.496 473.658,996.83 489.5,996.5C 489.5,1004.83 489.5,1013.17 489.5,1021.5C 464.167,1021.5 438.833,1021.5 413.5,1021.5C 413.5,950.167 413.5,878.833 413.5,807.5C 423.167,807.5 432.833,807.5 442.5,807.5C 442.5,870.167 442.5,932.833 442.5,995.5 Z"/></g>
<g><path style="opacity:1" fill="#fdfdfd" d="M 626.5,807.5 C 645.86,807.157 665.194,807.657 684.5,809C 698.813,811.981 707.98,820.481 712,834.5C 713.593,851.455 713.927,868.455 713,885.5C 711.672,897.518 705.505,905.851 694.5,910.5C 693.231,912.695 693.231,914.861 694.5,917C 705.051,920.885 711.218,928.385 713,939.5C 713.667,954.5 713.667,969.5 713,984.5C 712.377,1003.63 702.877,1015.46 684.5,1020C 665.203,1021.41 645.87,1021.91 626.5,1021.5C 626.5,950.167 626.5,878.833 626.5,807.5 Z"/></g>
<g><path style="opacity:1" fill="#fafafa" d="M 846.5,807.5 C 872.167,807.5 897.833,807.5 923.5,807.5C 923.5,816.167 923.5,824.833 923.5,833.5C 907.833,833.5 892.167,833.5 876.5,833.5C 876.5,855.833 876.5,878.167 876.5,900.5C 891.167,900.5 905.833,900.5 920.5,900.5C 920.5,909.167 920.5,917.833 920.5,926.5C 905.833,926.5 891.167,926.5 876.5,926.5C 876.5,949.5 876.5,972.5 876.5,995.5C 892.167,995.5 907.833,995.5 923.5,995.5C 923.5,1004.17 923.5,1012.83 923.5,1021.5C 897.833,1021.5 872.167,1021.5 846.5,1021.5C 846.5,950.167 846.5,878.833 846.5,807.5 Z"/></g>
<g><path style="opacity:1" fill="#fafafa" d="M 971.5,836.5 C 971.5,835.167 971.5,833.833 971.5,832.5C 968.941,832.198 966.607,832.532 964.5,833.5C 967.252,892.804 969.252,952.138 970.5,1011.5C 970.5,1014.83 970.5,1018.17 970.5,1021.5C 961.5,1021.5 952.5,1021.5 943.5,1021.5C 942.501,950.335 942.167,879.002 942.5,807.5C 957.833,807.5 973.167,807.5 988.5,807.5C 1001.28,869.745 1011.61,932.412 1019.5,995.5C 1021.5,995.5 1023.5,995.5 1025.5,995.5C 1021.58,932.893 1019.25,870.227 1018.5,807.5C 1027.83,807.5 1037.17,807.5 1046.5,807.5C 1046.5,878.833 1046.5,950.167 1046.5,1021.5C 1030.43,1022.14 1014.59,1021.48 999,1019.5C 986.482,959.025 977.315,898.025 971.5,836.5 Z"/></g>
<g><path style="opacity:1" fill="#010101" d="M 655.5,833.5 C 679.874,829.877 689.541,840.211 684.5,864.5C 684.333,871.5 684.167,878.5 684,885.5C 683.19,893.317 679.023,898.151 671.5,900C 666.177,900.499 660.844,900.666 655.5,900.5C 655.5,878.167 655.5,855.833 655.5,833.5 Z"/></g>
<g><path style="opacity:1" fill="#535353" d="M 964.5,833.5 C 966.607,832.532 968.941,832.198 971.5,832.5C 971.5,833.833 971.5,835.167 971.5,836.5C 970.596,835.791 970.263,834.791 970.5,833.5C 968.5,833.5 966.5,833.5 964.5,833.5 Z"/></g>
<g><path style="opacity:1" fill="#6a6a6a" d="M 538.5,842.5 C 538.5,856.833 538.5,871.167 538.5,885.5C 528.652,885.827 518.986,885.494 509.5,884.5C 518.833,884.5 528.167,884.5 537.5,884.5C 537.171,870.323 537.504,856.323 538.5,842.5 Z"/></g>
<g><path style="opacity:1" fill="#787878" d="M 797.5,876.5 C 797.5,879.167 797.5,881.833 797.5,884.5C 806.833,884.5 816.167,884.5 825.5,884.5C 816.014,885.494 806.348,885.827 796.5,885.5C 796.19,882.287 796.523,879.287 797.5,876.5 Z"/></g>
<g><path style="opacity:1" fill="#010101" d="M 655.5,926.5 C 661.176,926.334 666.843,926.501 672.5,927C 679.19,929.026 683.023,933.526 684,940.5C 684.667,955.167 684.667,969.833 684,984.5C 682.474,990.026 678.974,993.526 673.5,995C 667.509,995.499 661.509,995.666 655.5,995.5C 655.5,972.5 655.5,949.5 655.5,926.5 Z"/></g>
<g><path style="opacity:1" fill="#8d8d8d" d="M 442.5,995.5 C 458.5,995.5 474.5,995.5 490.5,995.5C 490.826,1004.35 490.493,1013.02 489.5,1021.5C 489.5,1013.17 489.5,1004.83 489.5,996.5C 473.658,996.83 457.991,996.496 442.5,995.5 Z"/></g>
<g><path style="opacity:1" fill="#7f7f7f" d="M 538.5,995.5 C 558.833,995.5 579.167,995.5 599.5,995.5C 599.826,1004.35 599.493,1013.02 598.5,1021.5C 598.5,1013.17 598.5,1004.83 598.5,996.5C 578.326,996.83 558.326,996.497 538.5,995.5 Z"/></g>
<g><path style="opacity:1" fill="#4b4b4b" d="M 970.5,1011.5 C 971.482,1014.96 971.815,1018.63 971.5,1022.5C 961.985,1022.83 952.652,1022.49 943.5,1021.5C 952.5,1021.5 961.5,1021.5 970.5,1021.5C 970.5,1018.17 970.5,1014.83 970.5,1011.5 Z"/></g>
</svg>
